<svg width="5" height="8" viewBox="0 0 5 8" fill="none" xmlns="http://www.w3.org/2000/svg">
<path d="M4.14498 4L0.103504 0.511212C0.0702295 0.483097 0.0439243 0.449718 0.02611 0.413006C0.00829573 0.376294 -0.000673734 0.33698 -0.000279376 0.297336C0.000114983 0.257693 0.00986507 0.218509 0.0284072 0.182051C0.0469494 0.145593 0.0739154 0.112586 0.107744 0.0849387C0.141573 0.0572916 0.181593 0.035554 0.225489 0.0209837C0.269385 0.00641335 0.316285 -0.00070032 0.363474 5.43292e-05C0.410664 0.000808979 0.457206 0.00941697 0.500408 0.0253801C0.54361 0.0413433 0.582614 0.0643447 0.615162 0.0930532L4.8984 3.79092C4.96323 3.84689 4.9995 3.92191 4.9995 4C4.99949 4.07809 4.96321 4.15311 4.89838 4.20908L0.614714 7.90695C0.582163 7.93566 0.543156 7.95866 0.499953 7.97462C0.456749 7.99058 0.410206 7.99919 0.363016 7.99995C0.315826 8.0007 0.268927 7.99359 0.225033 7.97902C0.181139 7.96445 0.141121 7.94271 0.107296 7.91506C0.0734699 7.88741 0.0465077 7.85441 0.0279697 7.81795C0.00943176 7.78149 -0.000313838 7.74231 -0.000703654 7.70266C-0.00109347 7.66302 0.0078805 7.62371 0.025699 7.58699C0.0435175 7.55028 0.0698265 7.5169 0.103104 7.48879L4.14545 4H4.14498Z" fill="#CBCBCB"/>
</svg>
