<svg width="8" height="6" viewBox="0 0 8 6" fill="none" xmlns="http://www.w3.org/2000/svg">
<path d="M3.99962 5.1454L7.48878 1.10374C7.5169 1.07047 7.55028 1.04416 7.58699 1.02635C7.6237 1.00854 7.66302 0.99957 7.70266 0.999968C7.74231 1.00037 7.78149 1.01012 7.81795 1.02867C7.8544 1.04722 7.88741 1.07419 7.91505 1.10802C7.9427 1.14186 7.96443 1.18189 7.979 1.22579C7.99356 1.26969 8.00067 1.3166 7.99991 1.36379C7.99915 1.41099 7.99054 1.45754 7.97457 1.50074C7.95861 1.54395 7.9356 1.58296 7.90689 1.6155L4.20863 5.89894C4.15265 5.96377 4.07763 6.00004 3.99954 6.00003C3.92144 6.00001 3.84644 5.96372 3.79047 5.89887L0.0929956 1.61433C0.06429 1.58178 0.0412927 1.54276 0.0253336 1.49955C0.00937439 1.45634 0.000770844 1.40979 2.05583e-05 1.3626C-0.000729727 1.3154 0.00638805 1.2685 0.0209624 1.2246C0.0355368 1.1807 0.0572778 1.14068 0.084928 1.10685C0.112578 1.07302 0.145588 1.04606 0.182048 1.02753C0.218508 1.00899 0.257693 0.999245 0.297336 0.998859C0.336979 0.998473 0.376293 1.00745 0.413003 1.02528C0.449713 1.0431 0.48309 1.06941 0.511202 1.1027L3.99962 5.14588L3.99962 5.1454Z" fill="#CBCBCB"/>
</svg>
