<svg width="15" height="18" viewBox="0 0 15 18" fill="none" xmlns="http://www.w3.org/2000/svg">
<path d="M8.02871 6.52316H12.8459V5.88606C12.846 5.73532 12.8255 5.58531 12.7849 5.44031L12.7838 5.43596C12.7086 5.17056 12.5683 4.92889 12.376 4.73364L8.185 0.477277C7.88398 0.171756 7.47585 9.22824e-05 7.05028 0H2.14099C1.57316 0 1.02859 0.229086 0.627081 0.636863C0.225568 1.04464 0 1.5977 0 2.17439V15.2207C0 15.7974 0.225568 16.3504 0.627081 16.7582C1.02859 17.166 1.57316 17.3951 2.14099 17.3951H4.51856L4.50464 17.3668C4.33792 17.0407 4.26204 16.6746 4.28519 16.3079H2.14099C1.85708 16.3079 1.58479 16.1933 1.38404 15.9895C1.18328 15.7856 1.07049 15.509 1.07049 15.2207V2.17439C1.07049 1.88604 1.18328 1.60951 1.38404 1.40562C1.58479 1.20174 1.85708 1.08719 2.14099 1.08719H6.42297V4.89237C6.42297 5.32488 6.59214 5.73968 6.89328 6.04551C7.19441 6.35134 7.60284 6.52316 8.02871 6.52316ZM8.02871 5.43596C7.88675 5.43596 7.75061 5.37869 7.65023 5.27675C7.54985 5.1748 7.49346 5.03654 7.49346 4.89237V1.31224L11.5538 5.43596H8.02871Z" fill="currentColor"/>
<path d="M11.572 8.2061C11.7574 8.01495 11.9782 7.86296 12.2217 7.75889C12.4652 7.65482 12.7266 7.60073 12.9908 7.59975C13.255 7.59876 13.5167 7.65089 13.761 7.75313C14.0052 7.85538 14.2272 8.00571 14.4139 8.19547C14.6007 8.38523 14.7486 8.61066 14.8492 8.85876C14.9498 9.10686 15.001 9.37273 15 9.64104C14.9989 9.90935 14.9455 10.1748 14.843 10.422C14.7404 10.6693 14.5907 10.8935 14.4024 11.0817L9.2319 16.3318C8.9307 16.6378 8.55329 16.855 8.14 16.9602L6.5364 17.3668C6.37694 17.4071 6.20992 17.4049 6.05156 17.3604C5.8932 17.3158 5.74889 17.2304 5.63263 17.1124C5.51638 16.9945 5.43215 16.848 5.38811 16.6872C5.34408 16.5264 5.34174 16.3568 5.38133 16.1948L5.78277 14.5662C5.88554 14.1465 6.09963 13.7617 6.40151 13.4572L11.572 8.2061V8.2061Z" fill="currentColor"/>
</svg>
