<svg width="16" height="16" viewBox="0 0 16 16" fill="none" xmlns="http://www.w3.org/2000/svg">
<path d="M8 0C10.817 0 12.415 1.923 12.647 4.246H12.717C14.532 4.246 16 5.758 16 7.623C16 7.718 15.996 7.813 15.989 7.906C15.6667 7.50394 15.292 7.14677 14.875 6.844C14.565 5.911 13.712 5.246 12.718 5.246H12.647C12.3991 5.246 12.16 5.15392 11.9762 4.98762C11.7923 4.82133 11.6768 4.59266 11.652 4.346C11.45 2.325 10.109 1 8 1C5.886 1 4.551 2.316 4.348 4.345C4.32344 4.59184 4.20801 4.82075 4.02414 4.98725C3.84026 5.15376 3.60106 5.24598 3.353 5.246H3.283C2.027 5.246 1 6.304 1 7.623C1 8.943 2.028 10 3.282 10H5.948C5.85953 10.3274 5.8003 10.6621 5.771 11H3.282C1.469 11 0 9.488 0 7.623C0 5.82 1.373 4.347 3.102 4.251L3.353 4.246C3.587 1.908 5.183 0 8 0ZM11.5 16C10.3065 16 9.16193 15.5259 8.31802 14.682C7.47411 13.8381 7 12.6935 7 11.5C7 10.3065 7.47411 9.16193 8.31802 8.31802C9.16193 7.47411 10.3065 7 11.5 7C12.6935 7 13.8381 7.47411 14.682 8.31802C15.5259 9.16193 16 10.3065 16 11.5C16 12.6935 15.5259 13.8381 14.682 14.682C13.8381 15.5259 12.6935 16 11.5 16ZM13.102 11.102L12 12.204V9.5C12 9.36739 11.9473 9.24021 11.8536 9.14645C11.7598 9.05268 11.6326 9 11.5 9C11.3674 9 11.2402 9.05268 11.1464 9.14645C11.0527 9.24021 11 9.36739 11 9.5V12.204L9.898 11.102C9.79244 10.9964 9.64928 10.9371 9.5 10.9371C9.35072 10.9371 9.20756 10.9964 9.102 11.102C8.99644 11.2076 8.93714 11.3507 8.93714 11.5C8.93714 11.6493 8.99644 11.7924 9.102 11.898L11.102 13.898C11.322 14.118 11.678 14.118 11.898 13.898L13.898 11.898C14.0036 11.7924 14.0629 11.6493 14.0629 11.5C14.0629 11.3507 14.0036 11.2076 13.898 11.102C13.7924 10.9964 13.6493 10.9371 13.5 10.9371C13.3507 10.9371 13.2076 10.9964 13.102 11.102V11.102Z" fill="currentColor"/>
</svg>
