<svg width="12" height="21" viewBox="0 0 12 21" fill="none" xmlns="http://www.w3.org/2000/svg">
<path d="M10.727 1.687C10.8172 1.59153 10.8877 1.47923 10.9345 1.3565C10.9814 1.23377 11.0035 1.10302 10.9998 0.971721C10.9961 0.840419 10.9666 0.711134 10.9129 0.591248C10.8592 0.471362 10.7824 0.363223 10.687 0.273005C10.5915 0.182787 10.4792 0.112257 10.3565 0.0654411C10.2337 0.0186256 10.103 -0.00355848 9.97169 0.000155861C9.84039 0.00387021 9.7111 0.03341 9.59122 0.0870888C9.47133 0.140767 9.36319 0.217534 9.27298 0.313005L0.772976 9.313C0.59744 9.49867 0.499634 9.74449 0.499634 10C0.499634 10.2555 0.59744 10.5013 0.772976 10.687L9.27298 19.688C9.3626 19.7856 9.47071 19.8643 9.59104 19.9198C9.71137 19.9752 9.84151 20.0062 9.9739 20.0109C10.1063 20.0156 10.2383 19.9939 10.3623 19.9472C10.4862 19.9004 10.5997 19.8295 10.696 19.7386C10.7923 19.6476 10.8696 19.5384 10.9233 19.4173C10.9771 19.2963 11.0063 19.1657 11.0092 19.0333C11.0121 18.9008 10.9886 18.7691 10.9402 18.6458C10.8917 18.5225 10.8192 18.4101 10.727 18.315L2.87498 10L10.727 1.687V1.687Z" fill="white"/>
</svg>
