<svg width="15" height="20" viewBox="0 0 15 20" fill="none" xmlns="http://www.w3.org/2000/svg">
<path d="M2.30768 2.4375C2.30768 1.79103 2.55081 1.17105 2.98359 0.713927C3.41636 0.256807 4.00333 0 4.61537 0H8.75306C9.21193 0.000426689 9.65187 0.193312 9.97614 0.53625L14.4934 5.30644C14.8177 5.64915 14.9999 6.1138 15 6.59831V14.625C15 15.2715 14.7568 15.8914 14.3241 16.3486C13.8913 16.8057 13.3043 17.0625 12.6923 17.0625H4.61537C4.00333 17.0625 3.41636 16.8057 2.98359 16.3486C2.55081 15.8914 2.30768 15.2715 2.30768 14.625V2.4375ZM4.61537 1.21875C4.30935 1.21875 4.01587 1.34715 3.79948 1.57571C3.58309 1.80427 3.46152 2.11427 3.46152 2.4375V14.625C3.46152 14.9482 3.58309 15.2582 3.79948 15.4868C4.01587 15.7153 4.30935 15.8437 4.61537 15.8437H12.6923C12.9983 15.8437 13.2918 15.7153 13.5082 15.4868C13.7246 15.2582 13.8461 14.9482 13.8461 14.625V7.3125H9.80768C9.34865 7.3125 8.90842 7.11989 8.58384 6.77705C8.25925 6.43421 8.07691 5.96922 8.07691 5.48437V1.21875H4.61537ZM9.23075 1.47103V5.48437C9.23075 5.64599 9.29153 5.80099 9.39973 5.91527C9.50792 6.02955 9.65467 6.09375 9.80768 6.09375H13.6073L9.23075 1.47103Z" fill="currentColor"/>
<path d="M0 3.65625C0 3.33302 0.121566 3.02302 0.337954 2.79446C0.554342 2.5659 0.847827 2.4375 1.15385 2.4375V14.625C1.15385 15.5947 1.51854 16.5247 2.16771 17.2104C2.81687 17.896 3.69733 18.2812 4.61538 18.2812H12.6923C12.6923 18.6045 12.5707 18.9145 12.3543 19.143C12.138 19.3716 11.8445 19.5 11.5385 19.5H4.54615C3.34044 19.5 2.18411 18.9941 1.33154 18.0936C0.478968 17.193 0 15.9717 0 14.6981V3.65625Z" fill="currentColor"/>
</svg>
