<svg width="15" height="19" viewBox="0 0 15 19" fill="none" xmlns="http://www.w3.org/2000/svg">
<path d="M1.99219 1.09956e-07C1.46383 1.09956e-07 0.957106 0.212689 0.583498 0.591278C0.20989 0.969867 0 1.48334 0 2.01875V16.9812C0 17.5167 0.20989 18.0301 0.583498 18.4087C0.957106 18.7873 1.46383 19 1.99219 19H13.0078C13.5362 19 14.0429 18.7873 14.4165 18.4087C14.7901 18.0301 15 17.5167 15 16.9812V6.84665C14.9999 6.56336 14.8888 6.29171 14.6911 6.0914L8.98922 0.31255C8.79135 0.112295 8.52309 -0.000128344 8.24344 1.09956e-07H1.99219ZM1.17188 2.01875C1.17188 1.5599 1.53937 1.1875 1.99219 1.1875H7.5V5.34375C7.5 5.81617 7.6852 6.26924 8.01485 6.60328C8.3445 6.93733 8.79161 7.125 9.25781 7.125H13.8281V16.9812C13.8281 17.2017 13.7417 17.4131 13.5879 17.569C13.434 17.7249 13.2254 17.8125 13.0078 17.8125H1.99219C1.77463 17.8125 1.56598 17.7249 1.41214 17.569C1.2583 17.4131 1.17188 17.2017 1.17188 16.9812V2.01875ZM12.8822 5.9375H9.25781C8.93437 5.9375 8.67188 5.6715 8.67188 5.34375V1.67105L12.8822 5.9375Z" fill="currentColor"/>
</svg>
