<svg width="10" height="13" viewBox="0 0 10 13" fill="none" xmlns="http://www.w3.org/2000/svg">
<path d="M1.32812 7.5233e-08C0.975884 7.5233e-08 0.63807 0.145524 0.388999 0.404559C0.139927 0.663593 0 1.01492 0 1.38125V11.6187C0 11.9851 0.139927 12.3364 0.388999 12.5954C0.63807 12.8545 0.975884 13 1.32812 13H8.67188C9.02412 13 9.36193 12.8545 9.611 12.5954C9.86007 12.3364 10 11.9851 10 11.6187V4.68455C9.99992 4.49072 9.92585 4.30486 9.79406 4.1678L5.99281 0.21385C5.8609 0.0768337 5.68206 -8.78141e-05 5.49563 7.5233e-08H1.32812ZM0.78125 1.38125C0.78125 1.0673 1.02625 0.8125 1.32812 0.8125H5V3.65625C5 3.97948 5.12346 4.28948 5.34323 4.51804C5.563 4.7466 5.86107 4.875 6.17188 4.875H9.21875V11.6187C9.21875 11.7696 9.16113 11.9143 9.05857 12.0209C8.95602 12.1276 8.81692 12.1875 8.67188 12.1875H1.32812C1.18308 12.1875 1.04398 12.1276 0.941426 12.0209C0.838867 11.9143 0.78125 11.7696 0.78125 11.6187V1.38125ZM8.58812 4.0625H6.17188C5.95625 4.0625 5.78125 3.8805 5.78125 3.65625V1.14335L8.58812 4.0625Z" fill="#878787"/>
</svg>
