<svg width="12" height="21" viewBox="0 0 12 21" fill="none" xmlns="http://www.w3.org/2000/svg">
<g clip-path="url(#clip0)">
<path d="M1.27302 19.3136C1.18281 19.4091 1.11228 19.5214 1.06546 19.6441C1.01865 19.7668 0.996461 19.8976 1.00018 20.0289C1.00389 20.1602 1.03343 20.2895 1.08711 20.4094C1.14079 20.5292 1.21755 20.6374 1.31302 20.7276C1.4085 20.8178 1.5208 20.8884 1.64353 20.9352C1.76626 20.982 1.89701 21.0042 2.02831 21.0005C2.15961 20.9967 2.2889 20.9672 2.40878 20.9135C2.52867 20.8598 2.63681 20.7831 2.72703 20.6876L11.227 11.6876C11.4026 11.5019 11.5004 11.2561 11.5004 11.0006C11.5004 10.7451 11.4026 10.4993 11.227 10.3136L2.72703 1.31261C2.6374 1.21505 2.52929 1.13626 2.40896 1.08084C2.28863 1.02542 2.15849 0.994452 2.0261 0.989748C1.8937 0.985045 1.7617 1.0067 1.63774 1.05344C1.51378 1.10019 1.40035 1.17109 1.30403 1.26205C1.20771 1.353 1.13042 1.46219 1.07665 1.58327C1.02289 1.70434 0.993714 1.8349 0.99083 1.96734C0.987945 2.09979 1.01141 2.23149 1.05985 2.35479C1.10829 2.4781 1.18076 2.59054 1.27302 2.68561L9.12502 11.0006L1.27302 19.3136V19.3136Z" fill="white"/>
</g>
<defs>
<clipPath id="clip0">
<rect width="12" height="21.0009" fill="white" transform="translate(12 21.0009) rotate(-180)"/>
</clipPath>
</defs>
</svg>
