<svg width="17" height="18" viewBox="0 0 17 18" fill="none" xmlns="http://www.w3.org/2000/svg">
<path d="M12.62 5.45578C12.9094 5.45578 13.187 5.34082 13.3916 5.13618C13.5963 4.93155 13.7112 4.65401 13.7112 4.36461C13.7112 4.07521 13.5963 3.79767 13.3916 3.59303C13.187 3.3884 12.9094 3.27344 12.62 3.27344C12.3306 3.27344 12.0531 3.3884 11.8485 3.59303C11.6438 3.79767 11.5289 4.07521 11.5289 4.36461C11.5289 4.65401 11.6438 4.93155 11.8485 5.13618C12.0531 5.34082 12.3306 5.45578 12.62 5.45578Z" fill="#B1B1B1"/>
<path d="M9.48837 4.99371e-05C9.19975 -0.00190248 8.91362 0.0534144 8.64653 0.162798C8.37943 0.272182 8.13669 0.43346 7.93236 0.637295L0.641144 7.90996C0.438094 8.11249 0.276957 8.35307 0.166945 8.61792C0.0569323 8.88278 0.000203226 9.16672 5.45029e-07 9.45351C-0.000202136 9.74031 0.0561257 10.0243 0.165763 10.2893C0.275401 10.5543 0.436198 10.7951 0.638962 10.998L6.03917 16.3971C6.44842 16.8062 7.00341 17.0361 7.58209 17.0361C8.16077 17.0361 8.71576 16.8062 9.12501 16.3971L16.3606 9.16262C16.5638 8.9595 16.7248 8.71826 16.8346 8.45274C16.9443 8.18721 17.0005 7.90264 17 7.61534L16.9913 2.21404C16.9904 1.63845 16.7622 1.0865 16.3563 0.678375C15.9505 0.270249 15.3998 0.038996 14.8242 0.0349675L9.48837 4.99371e-05ZM8.70272 1.40984C8.80489 1.30793 8.92626 1.22729 9.05981 1.1726C9.19335 1.1179 9.33642 1.09025 9.48073 1.09122L14.8166 1.12614C15.1044 1.12815 15.3799 1.24386 15.5828 1.44804C15.7858 1.65222 15.8998 1.92833 15.9001 2.21622L15.9088 7.61752C15.9089 7.76099 15.8808 7.90307 15.8259 8.03563C15.771 8.1682 15.6906 8.28864 15.5891 8.39007L8.35464 15.6256C8.2533 15.7271 8.13296 15.8076 8.00049 15.8625C7.86802 15.9174 7.72603 15.9457 7.58264 15.9457C7.43924 15.9457 7.29725 15.9174 7.16478 15.8625C7.03232 15.8076 6.91197 15.7271 6.81063 15.6256L1.41042 10.2265C1.30904 10.1251 1.22864 10.0047 1.17382 9.8722C1.119 9.73969 1.09084 9.59768 1.09094 9.45428C1.09104 9.31089 1.11941 9.16892 1.17441 9.03649C1.22942 8.90406 1.30999 8.78378 1.41151 8.68251L8.70272 1.40984Z" fill="currentColor"/>
</svg>
