<svg width="13" height="12" viewBox="0 0 13 12" fill="none" xmlns="http://www.w3.org/2000/svg">
<path d="M8.46801 3.64953C8.77327 3.94767 9.26985 3.94767 9.57613 3.64953C9.8814 3.3524 9.8814 2.8698 9.57613 2.57166C9.42862 2.42832 9.2293 2.3479 9.02156 2.3479C8.81382 2.3479 8.6145 2.42832 8.46699 2.57166C8.16172 2.8698 8.16172 3.3524 8.46699 3.64953H8.46801Z" fill="#878787"/>
<path d="M0.600276 5.31464C0.410081 5.49931 0.259109 5.71907 0.156078 5.96124C0.0530474 6.20341 0 6.46318 0 6.72554C0 6.98791 0.0530474 7.24768 0.156078 7.48985C0.259109 7.73202 0.410081 7.95178 0.600276 8.13645L3.96841 11.4159C4.76821 12.1947 6.06458 12.1947 6.8654 11.4159L11.6378 6.76942C12.0173 6.39849 12.233 5.89695 12.2371 5.37247L12.2615 2.00922C12.2626 1.74457 12.2101 1.48234 12.1071 1.23771C12.004 0.993071 11.8525 0.770894 11.6612 0.584035C11.47 0.397176 11.2428 0.249347 10.9928 0.149105C10.7429 0.0488636 10.4751 -0.00179943 10.205 4.8805e-05L6.88372 0.0140083C6.34375 0.0157633 5.82618 0.225653 5.44285 0.598314L0.600276 5.31464ZM1.32478 7.4305C1.22968 7.33817 1.1542 7.22828 1.10268 7.1072C1.05117 6.98612 1.02464 6.85623 1.02464 6.72505C1.02464 6.59386 1.05117 6.46398 1.10268 6.34289C1.1542 6.22181 1.22968 6.11193 1.32478 6.01959L6.16838 1.30327C6.35979 1.11718 6.61816 1.01226 6.88779 1.01112L10.2091 0.997157C10.7789 0.995163 11.2419 1.44685 11.2369 2.00224L11.2124 5.36549C11.2103 5.62785 11.1024 5.87874 10.9122 6.06347L6.1409 10.71C5.741 11.0999 5.09281 11.0999 4.69291 10.71L1.32478 7.4295V7.4305Z" fill="#878787"/>
</svg>
