<svg width="16" height="16" viewBox="0 0 16 16" fill="none" xmlns="http://www.w3.org/2000/svg">
<path d="M8 0C10.817 0 12.415 1.923 12.647 4.246H12.717C14.532 4.246 16 5.758 16 7.623C16 7.718 15.996 7.813 15.989 7.906C15.6667 7.50394 15.292 7.14677 14.875 6.844C14.565 5.911 13.712 5.246 12.718 5.246H12.647C12.3991 5.246 12.16 5.15392 11.9762 4.98762C11.7923 4.82133 11.6768 4.59266 11.652 4.346C11.45 2.325 10.109 1 8 1C5.886 1 4.551 2.316 4.348 4.345C4.32344 4.59184 4.20801 4.82075 4.02414 4.98725C3.84026 5.15376 3.60106 5.24598 3.353 5.246H3.283C2.027 5.246 1 6.304 1 7.623C1 8.943 2.028 10 3.282 10H5.948C5.85953 10.3274 5.8003 10.6621 5.771 11H3.282C1.469 11 0 9.488 0 7.623C0 5.82 1.373 4.347 3.102 4.251L3.353 4.246C3.587 1.908 5.183 0 8 0ZM11.5 7C12.6935 7 13.8381 7.47411 14.682 8.31802C15.5259 9.16193 16 10.3065 16 11.5C16 12.6935 15.5259 13.8381 14.682 14.682C13.8381 15.5259 12.6935 16 11.5 16C10.3065 16 9.16193 15.5259 8.31802 14.682C7.47411 13.8381 7 12.6935 7 11.5C7 10.3065 7.47411 9.16193 8.31802 8.31802C9.16193 7.47411 10.3065 7 11.5 7V7ZM13.102 11.898C13.2076 12.0036 13.3507 12.0629 13.5 12.0629C13.6493 12.0629 13.7924 12.0036 13.898 11.898C14.0036 11.7924 14.0629 11.6493 14.0629 11.5C14.0629 11.3507 14.0036 11.2076 13.898 11.102L11.898 9.102C11.8458 9.04963 11.7838 9.00808 11.7155 8.97973C11.6472 8.95138 11.5739 8.93679 11.5 8.93679C11.4261 8.93679 11.3528 8.95138 11.2845 8.97973C11.2162 9.00808 11.1542 9.04963 11.102 9.102L9.102 11.102C9.04973 11.1543 9.00827 11.2163 8.97999 11.2846C8.9517 11.3529 8.93714 11.4261 8.93714 11.5C8.93714 11.5739 8.9517 11.6471 8.97999 11.7154C9.00827 11.7837 9.04973 11.8457 9.102 11.898C9.15427 11.9503 9.21632 11.9917 9.2846 12.02C9.35289 12.0483 9.42608 12.0629 9.5 12.0629C9.57392 12.0629 9.64711 12.0483 9.7154 12.02C9.78368 11.9917 9.84573 11.9503 9.898 11.898L11 10.796V13.5C11 13.6326 11.0527 13.7598 11.1464 13.8536C11.2402 13.9473 11.3674 14 11.5 14C11.6326 14 11.7598 13.9473 11.8536 13.8536C11.9473 13.7598 12 13.6326 12 13.5V10.796L13.102 11.898Z" fill="currentColor"/>
</svg>
