<svg width="24" height="28" viewBox="0 0 24 28" fill="none" xmlns="http://www.w3.org/2000/svg">
<path d="M17.332 0.666626C18.1276 0.666626 18.8907 0.982696 19.4533 1.54531C20.0159 2.10791 20.332 2.87098 20.332 3.66663V24.3333C20.332 25.1289 20.0159 25.892 19.4533 26.4546C18.8907 27.0172 18.1276 27.3333 17.332 27.3333H3.33331C2.53766 27.3333 1.7746 27.0172 1.21199 26.4546C0.649384 25.892 0.333313 25.1289 0.333313 24.3333V3.66663C0.333313 2.87098 0.649384 2.10791 1.21199 1.54531C1.7746 0.982696 2.53766 0.666626 3.33331 0.666626H17.332ZM17.332 2.66663H3.33331C3.0681 2.66663 2.81374 2.77198 2.62621 2.95952C2.43867 3.14706 2.33331 3.40141 2.33331 3.66663V24.3333C2.33331 24.8853 2.78131 25.3333 3.33331 25.3333H17.332C17.5972 25.3333 17.8515 25.2279 18.0391 25.0404C18.2266 24.8529 18.332 24.5985 18.332 24.3333V3.66663C18.332 3.40141 18.2266 3.14706 18.0391 2.95952C17.8515 2.77198 17.5972 2.66663 17.332 2.66663ZM21.6666 18.0026H22.6666C22.9083 18.0026 23.1418 18.0901 23.3239 18.249C23.506 18.4078 23.6244 18.6272 23.6573 18.8666L23.6666 19.0026V21C23.6666 21.2416 23.5791 21.4751 23.4203 21.6572C23.2615 21.8393 23.042 21.9578 22.8026 21.9906L22.6666 22H21.6666V18.0026H22.6666H21.6666ZM21.6666 12.6693H22.6666C22.9083 12.6693 23.1418 12.7568 23.3239 12.9156C23.506 13.0745 23.6244 13.2939 23.6573 13.5333L23.6666 13.6693V15.6666C23.6666 15.9083 23.5791 16.1417 23.4203 16.3239C23.2615 16.506 23.042 16.6244 22.8026 16.6573L22.6666 16.6666H21.6666V12.6693H22.6666H21.6666ZM21.6666 7.33596H22.6666C22.9083 7.33597 23.1418 7.42348 23.3239 7.58232C23.506 7.74115 23.6244 7.96055 23.6573 8.19996L23.6666 8.33596V10.3333C23.6666 10.5749 23.5791 10.8084 23.4203 10.9905C23.2615 11.1727 23.042 11.2911 22.8026 11.324L22.6666 11.3333H21.6666V7.33596H22.6666H21.6666ZM15.332 4.66663C15.5972 4.66663 15.8515 4.77198 16.0391 4.95952C16.2266 5.14706 16.332 5.40141 16.332 5.66663V8.99729C16.332 9.26251 16.2266 9.51686 16.0391 9.7044C15.8515 9.89194 15.5972 9.99729 15.332 9.99729H5.33331C5.0681 9.99729 4.81374 9.89194 4.62621 9.7044C4.43867 9.51686 4.33331 9.26251 4.33331 8.99729V5.66663C4.33331 5.40141 4.43867 5.14706 4.62621 4.95952C4.81374 4.77198 5.0681 4.66663 5.33331 4.66663H15.332ZM14.332 6.66663H6.33331V7.99729H14.332V6.66663Z" fill="#D3D3D3"/>
</svg>
